<?xml version="1.0" standalone="no"?>
<!DOCTYPE svg PUBLIC "-//W3C//DTD SVG 20010904//EN"
 "http://www.w3.org/TR/2001/REC-SVG-20010904/DTD/svg10.dtd">
<svg version="1.0" xmlns="http://www.w3.org/2000/svg"
 width="128.000000pt" height="128.000000pt" viewBox="0 0 128.000000 128.000000"
 preserveAspectRatio="xMidYMid meet">
<metadata>
Created by potrace 1.11, written by Peter Selinger 2001-2013
</metadata>
<g transform="translate(0.000000,128.000000) scale(0.100000,-0.100000)"
fill="#000000" stroke="none">
<path d="M50 1190 c-11 -46 -7 -110 8 -134 3 -6 4 -32 3 -58 -3 -52 13 -113
32 -125 7 -5 21 -30 32 -57 32 -78 62 -94 186 -97 38 -1 69 -5 69 -9 0 -11
-133 -110 -227 -170 -56 -35 -80 -56 -76 -66 3 -8 1 -14 -5 -14 -6 0 -15 -24
-22 -52 -11 -52 -10 -53 19 -79 42 -36 205 -184 266 -241 l51 -47 64 36 c36
19 111 66 167 104 l102 68 6 -30 c10 -46 49 -85 100 -99 25 -7 45 -17 45 -22
0 -17 70 -38 147 -43 43 -3 98 -7 122 -9 24 -2 56 0 72 6 l28 10 -31 31 c-39
41 -65 87 -123 217 -26 58 -59 120 -72 138 -24 33 -25 34 -6 55 10 12 23 26
29 32 35 31 94 120 90 134 -3 9 -7 34 -10 56 -12 82 -19 101 -45 123 -24 21
-152 139 -256 234 -22 21 -43 38 -46 38 -4 0 -31 -33 -61 -72 -65 -87 -147
-178 -159 -178 -5 0 -9 10 -9 23 0 13 -11 38 -25 57 -23 31 -110 100 -126 100
-27 0 -260 124 -290 155 l-37 36 -12 -51z"/>
</g>
</svg>
